<?xml version="1.0" standalone="no"?>
<!DOCTYPE svg PUBLIC "-//W3C//DTD SVG 20010904//EN"
 "http://www.w3.org/TR/2001/REC-SVG-20010904/DTD/svg10.dtd">
<svg version="1.0" xmlns="http://www.w3.org/2000/svg"
 width="816.000000pt" height="831.000000pt" viewBox="0 0 816.000000 831.000000"
 preserveAspectRatio="xMidYMid meet">

<g transform="translate(0.000000,831.000000) scale(0.100000,-0.100000)"
fill="#80C266" stroke="none">
<path d="M3723 8299 c-648 -41 -1324 -277 -1893 -662 -283 -191 -620 -484
-806 -700 -329 -383 -543 -735 -731 -1202 -261 -646 -349 -1395 -253 -2150
137 -1073 693 -2052 1550 -2726 430 -339 968 -602 1510 -739 297 -75 565 -109
910 -117 370 -8 665 19 944 88 67 17 166 41 221 55 373 93 833 308 1205 563
339 232 701 577 942 896 337 447 569 936 708 1493 69 278 102 479 121 747 14
200 6 641 -15 825 -96 814 -375 1494 -870 2115 -142 178 -462 502 -621 628
-585 465 -1200 739 -1925 857 -212 34 -695 49 -997 29z m652 -259 c515 -36
980 -165 1430 -395 636 -325 1136 -780 1502 -1366 198 -316 384 -749 467
-1089 79 -322 114 -587 123 -936 l6 -241 -94 -7 c-774 -57 -1510 -346 -2059
-811 -97 -82 -119 -105 -100 -105 6 0 192 38 413 84 665 140 858 171 1197 196
150 10 557 16 566 8 5 -6 -45 -200 -78 -303 l-23 -70 -145 17 c-414 48 -892
49 -1450 3 -465 -39 -997 -135 -1409 -255 -181 -53 -521 -165 -615 -203 l-60
-25 60 -11 c203 -40 698 -177 924 -256 535 -187 1214 -544 1610 -845 114 -87
114 -74 5 -171 -53 -46 -99 -85 -103 -87 -4 -1 -41 25 -82 59 -396 325 -741
546 -1255 806 -406 205 -842 365 -1516 554 -131 37 -466 118 -569 138 -335 65
-958 154 -1165 167 l-90 5 -113 -89 c-279 -221 -577 -523 -759 -768 l-60 -81
-32 53 -32 54 151 165 c375 409 901 869 1160 1013 65 36 179 76 282 98 209 44
512 1 1318 -190 348 -82 372 -86 494 -86 184 0 317 40 786 232 306 126 436
187 570 268 152 91 261 172 349 259 136 135 467 563 705 914 139 204 196 304
196 344 0 36 -28 79 -65 99 -42 22 -135 16 -195 -14 -74 -36 -146 -107 -434
-436 -501 -571 -638 -691 -876 -764 -129 -39 -433 -82 -586 -82 -135 0 -221
20 -532 125 -347 116 -538 155 -892 181 -226 17 89 42 615 49 220 2 443 9 495
15 252 27 428 123 474 257 41 121 -12 216 -145 263 -86 29 -185 39 -489 45
-440 9 -597 31 -880 120 -257 82 -328 96 -503 102 -175 6 -263 -4 -392 -44
-202 -64 -315 -146 -785 -573 -276 -250 -397 -350 -579 -478 -159 -111 -284
-188 -397 -245 -99 -50 -395 -179 -399 -175 -5 5 -47 339 -44 342 2 1 74 19
159 39 348 83 890 264 890 297 0 10 -137 67 -260 106 -222 72 -526 114 -704
96 l-79 -8 6 125 c10 212 89 620 168 868 173 540 457 1027 846 1451 101 110
320 307 459 413 493 377 1103 646 1673 739 260 42 668 60 946 40z"/>
<path d="M2745 7243 c53 -385 207 -748 401 -945 151 -153 266 -217 564 -314
229 -75 245 -85 299 -193 79 -156 104 -308 105 -628 l1 -253 93 0 92 0 1 43
c0 23 2 53 4 67 2 14 6 72 9 130 10 190 60 415 106 472 24 32 129 86 245 128
402 146 643 381 788 770 40 107 80 260 96 367 18 116 27 107 -96 100 -281 -16
-562 -96 -763 -217 -108 -65 -173 -121 -245 -212 -74 -94 -125 -192 -161 -313
-24 -82 -27 -106 -28 -265 0 -96 1 -213 3 -260 3 -70 -1 -98 -21 -160 l-24
-75 -13 70 c-7 39 -27 131 -43 205 -29 134 -29 136 -17 264 6 71 9 170 6 220
-29 424 -357 796 -842 954 -144 47 -393 92 -511 92 l-55 0 6 -47z"/>
<path d="M6368 5337 c-120 -45 -218 -134 -726 -657 -158 -162 -309 -314 -337
-338 -99 -86 -362 -231 -538 -298 -110 -42 -137 -55 -137 -66 0 -21 396 -1
540 28 88 17 203 65 314 131 100 59 292 247 586 573 351 389 380 419 466 483
47 34 83 68 82 76 -2 8 -20 28 -41 45 -33 26 -48 31 -105 33 -39 2 -82 -3
-104 -10z"/>
<path d="M5882 5248 c-106 -18 -171 -62 -486 -331 -113 -97 -248 -210 -298
-251 -80 -64 -95 -81 -111 -124 -68 -193 -245 -312 -527 -351 -67 -10 -337
-30 -399 -31 -48 0 -5 -17 144 -59 305 -83 386 -77 635 49 146 73 277 149 360
208 36 26 229 211 430 413 201 201 382 378 403 394 30 22 35 30 25 42 -30 36
-105 54 -176 41z"/>
</g>
</svg>
